<?xml version="1.0" encoding="utf-8"?>
<!-- Generator: Adobe Illustrator 22.0.1, SVG Export Plug-In . SVG Version: 6.00 Build 0)  -->
<svg version="1.1"
	 id="Layer_1" xmlns:cc="http://creativecommons.org/ns#" xmlns:dc="http://purl.org/dc/elements/1.1/" xmlns:inkscape="http://www.inkscape.org/namespaces/inkscape" xmlns:rdf="http://www.w3.org/1999/02/22-rdf-syntax-ns#" xmlns:sodipodi="http://sodipodi.sourceforge.net/DTD/sodipodi-0.dtd" xmlns:svg="http://www.w3.org/2000/svg"
	 xmlns="http://www.w3.org/2000/svg" xmlns:xlink="http://www.w3.org/1999/xlink" x="0px" y="0px" viewBox="0 0 446.9 1046.9"
	 style="enable-background:new 0 0 446.9 1046.9;" xml:space="preserve">
<style type="text/css">
	.st0{font-family:'HelveticaNeue-Bold';}
	.st1{font-size:5px;}
</style>
<g transform="translate(1565.9708,-1708.6006)">
	<path d="M-1131.3,1720.8c6.7,6.7,12.2,12.8,12.2,13.4s-87.8,89-195,196.2c-107.2,107.2-195,195.6-195,196.2s87.8,89,195,196.2
		c107.2,107.2,195,195.9,195,196.9c0,2.4-23.8,26.2-26.3,26.2c-1,0-96.1-94.2-211.2-209.4l-209.4-209.4l209.4-209.4
		c115.2-115.2,210.2-209.4,211.3-209.4S-1138,1714.1-1131.3,1720.8L-1131.3,1720.8z"/>
</g>
<text transform="matrix(1 0 0 1 0 852.4999)" class="st0 st1">Created by Hector</text>
<text transform="matrix(1 0 0 1 0 857.4999)" class="st0 st1">from the Noun Project</text>
</svg>
